pose8
version=1
nRows=4
nColumns=213
inDegrees=yes
endheader
time	platform_rx	platform_ry	platform_rz	platform_ty	pelvis_tilt	pelvis_list	pelvis_rotation	pelvis_tx	pelvis_ty	pelvis_tz	hip_flexion_r	hip_adduction_r	hip_rotation_r	knee_angle_r	knee_angle_r_beta	ankle_angle_r	subtalar_angle_r	mtp_angle_r	hip_flexion_l	hip_adduction_l	hip_rotation_l	knee_angle_l	knee_angle_l_beta	ankle_angle_l	subtalar_angle_l	mtp_angle_l	lumbar_extension	lumbar_bending	lumbar_rotation	arm_flex_r	arm_add_r	arm_rot_r	elbow_flex_r	pro_sup_r	wrist_flex_r	wrist_dev_r	arm_flex_l	arm_add_l	arm_rot_l	elbow_flex_l	pro_sup_l	wrist_flex_l	wrist_dev_l	platform_rx_u	platform_ry_u	platform_rz_u	platform_ty_u	pelvis_tilt_u	pelvis_list_u	pelvis_rotation_u	pelvis_tx_u	pelvis_ty_u	pelvis_tz_u	hip_flexion_r_u	hip_adduction_r_u	hip_rotation_r_u	knee_angle_r_u	knee_angle_r_beta_u	ankle_angle_r_u	subtalar_angle_r_u	mtp_angle_r_u	hip_flexion_l_u	hip_adduction_l_u	hip_rotation_l_u	knee_angle_l_u	knee_angle_l_beta_u	ankle_angle_l_u	subtalar_angle_l_u	mtp_angle_l_u	lumbar_extension_u	lumbar_bending_u	lumbar_rotation_u	arm_flex_r_u	arm_add_r_u	arm_rot_r_u	elbow_flex_r_u	pro_sup_r_u	wrist_flex_r_u	wrist_dev_r_u	arm_flex_l_u	arm_add_l_u	arm_rot_l_u	elbow_flex_l_u	pro_sup_l_u	wrist_flex_l_u	wrist_dev_l_u	addbrev_r.activation	addlong_r.activation	addlong_r.fiber_length	addmagDist_r.activation	addmagIsch_r.activation	addmagIsch_r.fiber_length	addmagMid_r.activation	addmagProx_r.activation	bflh_r.activation	bflh_r.fiber_length	bfsh_r.activation	edl_r.activation	edl_r.fiber_length	ehl_r.activation	ehl_r.fiber_length	fdl_r.activation	fdl_r.fiber_length	fhl_r.activation	fhl_r.fiber_length	gaslat_r.activation	gaslat_r.fiber_length	gasmed_r.activation	gasmed_r.fiber_length	glmax1_r.activation	glmax2_r.activation	glmax3_r.activation	glmed1_r.activation	glmed2_r.activation	glmed3_r.activation	glmin1_r.activation	glmin2_r.activation	glmin3_r.activation	glmin3_r.fiber_length	grac_r.activation	iliacus_r.activation	perbrev_r.activation	perbrev_r.fiber_length	perlong_r.activation	perlong_r.fiber_length	piri_r.activation	piri_r.fiber_length	psoas_r.activation	recfem_r.activation	recfem_r.fiber_length	sart_r.activation	semimem_r.activation	semimem_r.fiber_length	semiten_r.activation	semiten_r.fiber_length	soleus_r.activation	soleus_r.fiber_length	tfl_r.activation	tfl_r.fiber_length	tibant_r.activation	tibant_r.fiber_length	tibpost_r.activation	tibpost_r.fiber_length	vasint_r.activation	vasint_r.fiber_length	vaslat_r.activation	vaslat_r.fiber_length	vasmed_r.activation	vasmed_r.fiber_length	addbrev_l.activation	addlong_l.activation	addlong_l.fiber_length	addmagDist_l.activation	addmagIsch_l.activation	addmagIsch_l.fiber_length	addmagMid_l.activation	addmagProx_l.activation	bflh_l.activation	bflh_l.fiber_length	bfsh_l.activation	edl_l.activation	edl_l.fiber_length	ehl_l.activation	ehl_l.fiber_length	fdl_l.activation	fdl_l.fiber_length	fhl_l.activation	fhl_l.fiber_length	gaslat_l.activation	gaslat_l.fiber_length	gasmed_l.activation	gasmed_l.fiber_length	glmax1_l.activation	glmax2_l.activation	glmax3_l.activation	glmed1_l.activation	glmed2_l.activation	glmed3_l.activation	glmin1_l.activation	glmin2_l.activation	glmin3_l.activation	glmin3_l.fiber_length	grac_l.activation	iliacus_l.activation	perbrev_l.activation	perbrev_l.fiber_length	perlong_l.activation	perlong_l.fiber_length	piri_l.activation	piri_l.fiber_length	psoas_l.activation	recfem_l.activation	recfem_l.fiber_length	sart_l.activation	semimem_l.activation	semimem_l.fiber_length	semiten_l.activation	semiten_l.fiber_length	soleus_l.activation	soleus_l.fiber_length	tfl_l.activation	tfl_l.fiber_length	tibant_l.activation	tibant_l.fiber_length	tibpost_l.activation	tibpost_l.fiber_length	vasint_l.activation	vasint_l.fiber_length	vaslat_l.activation	vaslat_l.fiber_length	vasmed_l.activation	vasmed_l.fiber_length
      0.01284135	     20.00000000	      0.00000000	      0.00000000	      0.25000000	     -9.44713043	     -0.01691805	     -0.01251088	      0.07810763	      0.86800695	      0.00005990	     36.46393370	    -11.07750698	    -10.16313781	     44.06588093	     44.06588093	      7.98313228	     -2.05838008	      0.00000000	     36.45605491	    -11.18312253	    -10.16565841	     44.07307953	     44.07307953	      8.40264847	      0.00000000	     -0.00000000	     -1.04531449	      0.01511389	      0.01271016	     43.18349475	     -0.00867144	     89.89821680	      0.12989060	      0.09709575	     -0.00000000	      0.00000000	     43.18452465	     -0.01286237	     89.90046339	      0.13199604	      0.09752589	     -0.00000000	      0.00000000	     -0.00000000	      0.00000000	      0.00000000	     -0.00000000	    135.36336983	     -1.88908627	     -1.28116700	      0.02483745	      0.15122524	      0.00690732	   -180.71176938	      4.00747059	    -25.83372660	   -111.47185514	   -111.47185514	  -1100.75079854	   -248.85496915	     -0.00000000	   -181.49981894	     -8.12337287	    -26.10641625	   -110.62561347	   -110.62561347	  -1054.79766696	      0.00000000	      0.00000000	   -161.52470300	      1.60566114	      1.34678882	     27.59903280	     -1.29223407	     -1.01202336	      4.29070442	     -0.20264507	     -0.00000000	      0.00000000	     27.74565067	     -1.88783674	     -0.73864817	      4.58995580	     -0.14153524	     -0.00000000	      0.00000000	      0.01000000	      0.01000000	      0.09952059	      0.01000000	      0.01000000	      0.16575226	      0.01000000	      0.01000000	      0.01000000	      0.10360043	      0.01000000	      0.01000000	      0.06332744	      0.01000000	      0.07250443	      0.01000000	      0.04681198	      0.01000000	      0.05389992	      0.01000000	      0.06316145	      0.01000000	      0.05467298	      0.01000000	      0.01000000	      0.01000000	      0.01000000	      0.01000000	      0.01000000	      0.01000000	      0.01000000	      0.01000000	      0.03930332	      0.01000000	      0.01000000	      0.01000000	      0.04854568	      0.01000000	      0.05471542	      0.01000000	      0.02330452	      0.01000000	      0.01000000	      0.06918348	      0.01000000	      0.01000000	      0.07065763	      0.01000000	      0.21777524	      0.01000000	      0.05304324	      0.01000000	      0.07517609	      0.01000000	      0.06024149	      0.01000000	      0.04081130	      0.01000000	      0.11191242	      0.01000000	      0.11011792	      0.01000000	      0.10889255	      0.01000000	      0.01000000	      0.09964283	      0.01000000	      0.01000000	      0.16580947	      0.01000000	      0.01000000	      0.01000000	      0.10361826	      0.01000000	      0.01000000	      0.06355630	      0.01000000	      0.07225833	      0.01000000	      0.04651816	      0.01000000	      0.05365660	      0.01000000	      0.06322979	      0.01000000	      0.05479906	      0.01000000	      0.01000000	      0.01000000	      0.01000000	      0.01000000	      0.01000000	      0.01000000	      0.01000000	      0.01000000	      0.03923924	      0.01000000	      0.01000000	      0.01000000	      0.04940294	      0.01000000	      0.05542305	      0.01000000	      0.02325677	      0.01000000	      0.01000000	      0.06916603	      0.01000000	      0.01000000	      0.07066885	      0.01000000	      0.21780563	      0.01000000	      0.05312785	      0.01000000	      0.07509046	      0.01000000	      0.05966346	      0.01000000	      0.04046132	      0.01000000	      0.11191654	      0.01000000	      0.11012189	      0.01000000	      0.10889624
      0.01354087	     20.00000000	      0.00000000	      0.00000000	      0.25000000	     -9.34986016	     -0.01823239	     -0.01339511	      0.07812595	      0.86811525	      0.00006473	     36.33375597	    -11.07465526	    -10.18171722	     43.98536273	     43.98536273	      7.20565579	     -2.23287871	      0.00000000	     36.32533203	    -11.18873753	    -10.18443713	     43.99313714	     43.99313714	      7.65708709	      0.00000000	     -0.00000000	     -1.16129960	      0.01622504	      0.01364342	     43.20326809	     -0.00959681	     89.89748772	      0.13296025	      0.09697877	     -0.00000000	      0.00000000	     43.20440227	     -0.01421127	     89.89992878	      0.13527851	      0.09745235	     -0.00000000	      0.00000000	     -0.00000000	      0.00000000	      0.00000000	     -0.00000000	    142.73829955	     -1.86644002	     -1.24526623	      0.02757665	      0.15840209	      0.00687675	   -191.48662930	      4.14407121	    -27.28564437	   -118.74171391	   -118.74171391	  -1121.54983393	   -249.86233997	     -0.00000000	   -192.25718268	     -7.91984406	    -27.58278646	   -117.94473724	   -117.94473724	  -1076.28513850	      0.00000000	      0.00000000	   -170.07988544	      1.56901024	      1.31985970	     28.93178053	     -1.35329754	     -1.07263845	      4.48498302	     -0.13009148	     -0.00000000	      0.00000000	     29.08327138	     -1.96840433	     -0.79010594	      4.79408576	     -0.06699304	     -0.00000000	      0.00000000	      0.01000000	      0.01000000	      0.09958914	      0.01000000	      0.01000000	      0.16562816	      0.01000000	      0.01000000	      0.01000000	      0.10352548	      0.01000000	      0.01000000	      0.06375879	      0.01000000	      0.07302700	      0.01000000	      0.04679178	      0.01000000	      0.05381251	      0.01000000	      0.06277094	      0.01000000	      0.05432064	      0.01000000	      0.01000000	      0.01000000	      0.01000000	      0.01000000	      0.01000000	      0.01000000	      0.01000000	      0.01000000	      0.03927429	      0.01000000	      0.01000000	      0.01000000	      0.04840818	      0.01000000	      0.05456089	      0.01000000	      0.02327296	      0.01000000	      0.01000000	      0.06922860	      0.01000000	      0.01000000	      0.07061322	      0.01000000	      0.21770918	      0.01000000	      0.05265996	      0.01000000	      0.07527243	      0.01000000	      0.06083755	      0.01000000	      0.04077408	      0.01000000	      0.11186517	      0.01000000	      0.11007206	      0.01000000	      0.10885026	      0.01000000	      0.01000000	      0.09972999	      0.01000000	      0.01000000	      0.16569042	      0.01000000	      0.01000000	      0.01000000	      0.10354513	      0.01000000	      0.01000000	      0.06401142	      0.01000000	      0.07275714	      0.01000000	      0.04646007	      0.01000000	      0.05354664	      0.01000000	      0.06284061	      0.01000000	      0.05444319	      0.01000000	      0.01000000	      0.01000000	      0.01000000	      0.01000000	      0.01000000	      0.01000000	      0.01000000	      0.01000000	      0.03920467	      0.01000000	      0.01000000	      0.01000000	      0.04934092	      0.01000000	      0.05533545	      0.01000000	      0.02322061	      0.01000000	      0.01000000	      0.06920933	      0.01000000	      0.01000000	      0.07062571	      0.01000000	      0.21774232	      0.01000000	      0.05275249	      0.01000000	      0.07517892	      0.01000000	      0.06021023	      0.01000000	      0.04038436	      0.01000000	      0.11186968	      0.01000000	      0.11007642	      0.01000000	      0.10885430
      0.01424039	     20.00000000	      0.00000000	      0.00000000	      0.25000000	     -9.24744031	     -0.01952734	     -0.01425330	      0.07814623	      0.86822852	      0.00006952	     36.19602976	    -11.07170873	    -10.20130766	     43.89975474	     43.89975474	      6.41481695	     -2.40769327	      0.00000000	     36.18707162	    -11.19419219	    -10.20424999	     43.90806445	     43.90806445	      6.89762591	      0.00000000	     -0.00000000	     -1.28325000	      0.01730728	      0.01455700	     43.22396716	     -0.01056469	     89.89671604	      0.13616432	      0.09691621	     -0.00000000	      0.00000000	     43.22520883	     -0.01561547	     89.89935758	      0.13870185	      0.09743455	     -0.00000000	      0.00000000	     -0.00000000	      0.00000000	      0.00000000	     -0.00000000	    150.08475729	     -1.83460661	     -1.20832295	      0.03040881	      0.16542314	      0.00682244	   -202.28878166	      4.28043635	    -28.72280548	   -126.01965055	   -126.01965055	  -1139.02546886	   -249.78087676	     -0.00000000	   -203.04632721	     -7.66832548	    -29.06511223	   -125.28872854	   -125.28872854	  -1094.60269546	      0.00000000	     -0.00000000	   -178.57835051	      1.52400363	      1.29212025	     30.24591255	     -1.41389743	     -1.13375727	      4.67507444	     -0.04704023	     -0.00000000	      0.00000000	     30.40162356	     -2.04582902	     -0.84327276	      4.99268935	      0.01776598	     -0.00000000	      0.00000000	      0.01000000	      0.01000000	      0.09966201	      0.01000000	      0.01000000	      0.16549660	      0.01000000	      0.01000000	      0.01000000	      0.10344591	      0.01000000	      0.01000000	      0.06419885	      0.01000000	      0.07355953	      0.01000000	      0.04676954	      0.01000000	      0.05372128	      0.01000000	      0.06239577	      0.01000000	      0.05399905	      0.01000000	      0.01000000	      0.01000000	      0.01000000	      0.01000000	      0.01000000	      0.01000000	      0.01000000	      0.01000000	      0.03924335	      0.01000000	      0.01000000	      0.01000000	      0.04826887	      0.01000000	      0.05440340	      0.01000000	      0.02323922	      0.01000000	      0.01000000	      0.06927642	      0.01000000	      0.01000000	      0.07056579	      0.01000000	      0.21763952	      0.01000000	      0.05226199	      0.01000000	      0.07537438	      0.01000000	      0.06144396	      0.01000000	      0.04073447	      0.01000000	      0.11181460	      0.01000000	      0.11002294	      0.01000000	      0.10880503	      0.01000000	      0.01000000	      0.09980699	      0.01000000	      0.01000000	      0.16556391	      0.01000000	      0.01000000	      0.01000000	      0.10346741	      0.01000000	      0.01000000	      0.06447624	      0.01000000	      0.07326621	      0.01000000	      0.04639889	      0.01000000	      0.05343401	      0.01000000	      0.06246327	      0.01000000	      0.05411098	      0.01000000	      0.01000000	      0.01000000	      0.01000000	      0.01000000	      0.01000000	      0.01000000	      0.01000000	      0.01000000	      0.03916823	      0.01000000	      0.01000000	      0.01000000	      0.04927676	      0.01000000	      0.05524489	      0.01000000	      0.02318234	      0.01000000	      0.01000000	      0.06925529	      0.01000000	      0.01000000	      0.07057960	      0.01000000	      0.21767545	      0.01000000	      0.05236249	      0.01000000	      0.07527299	      0.01000000	      0.06076747	      0.01000000	      0.04030419	      0.01000000	      0.11181948	      0.01000000	      0.11002767	      0.01000000	      0.10880939
      0.01493991	     20.00000000	      0.00000000	      0.00000000	      0.25000000	     -9.13989723	     -0.02079649	     -0.01508355	      0.07816851	      0.86834664	      0.00007426	     36.05074820	    -11.06866890	    -10.22189893	     43.80906096	     43.80906096	      5.61280898	     -2.58210116	      0.00000000	     36.04126479	    -11.19945355	    -10.22509779	     43.81785469	     43.81785469	      6.12634466	      0.00000000	     -0.00000000	     -1.41111929	      0.01835470	      0.01544911	     43.24557847	     -0.01157459	     89.89590138	      0.13949974	      0.09691527	     -0.00000000	      0.00000000	     43.24693044	     -0.01707291	     89.89874873	      0.14226223	      0.09747950	     -0.00000000	      0.00000000	     -0.00000000	      0.00000000	      0.00000000	     -0.00000000	    157.38326388	     -1.79232729	     -1.16394232	      0.03330770	      0.17226334	      0.00673602	   -213.08352247	      4.40932947	    -30.14786895	   -133.27895958	   -133.27895958	  -1153.52652782	   -248.71047608	     -0.00000000	   -213.82724397	     -7.36617931	    -30.53893687	   -132.62793578	   -132.62793578	  -1110.13528064	      0.00000000	     -0.00000000	   -186.99952149	      1.46905518	      1.25699891	     31.53962417	     -1.47327405	     -1.19556691	      4.86045877	      0.04598385	     -0.00000000	      0.00000000	     31.69924880	     -2.12075843	     -0.89769030	      5.18595610	      0.11236049	     -0.00000000	      0.00000000	      0.01000000	      0.01000000	      0.09973930	      0.01000000	      0.01000000	      0.16535761	      0.01000000	      0.01000000	      0.01000000	      0.10336174	      0.01000000	      0.01000000	      0.06464627	      0.01000000	      0.07410023	      0.01000000	      0.04674517	      0.01000000	      0.05362647	      0.01000000	      0.06205020	      0.01000000	      0.05371139	      0.01000000	      0.01000000	      0.01000000	      0.01000000	      0.01000000	      0.01000000	      0.01000000	      0.01000000	      0.01000000	      0.03921049	      0.01000000	      0.01000000	      0.01000000	      0.04812834	      0.01000000	      0.05424364	      0.01000000	      0.02320334	      0.01000000	      0.01000000	      0.06932687	      0.01000000	      0.01000000	      0.07051535	      0.01000000	      0.21756626	      0.01000000	      0.05185023	      0.01000000	      0.07548189	      0.01000000	      0.06205875	      0.01000000	      0.04069254	      0.01000000	      0.11176070	      0.01000000	      0.10997054	      0.01000000	      0.10875683	      0.01000000	      0.01000000	      0.09989935	      0.01000000	      0.01000000	      0.16542991	      0.01000000	      0.01000000	      0.01000000	      0.10338511	      0.01000000	      0.01000000	      0.06494924	      0.01000000	      0.07378357	      0.01000000	      0.04633483	      0.01000000	      0.05331951	      0.01000000	      0.06211172	      0.01000000	      0.05381144	      0.01000000	      0.01000000	      0.01000000	      0.01000000	      0.01000000	      0.01000000	      0.01000000	      0.01000000	      0.01000000	      0.03912992	      0.01000000	      0.01000000	      0.01000000	      0.04921062	      0.01000000	      0.05515165	      0.01000000	      0.02314201	      0.01000000	      0.01000000	      0.06930388	      0.01000000	      0.01000000	      0.07053052	      0.01000000	      0.21760501	      0.01000000	      0.05195868	      0.01000000	      0.07537267	      0.01000000	      0.06133342	      0.01000000	      0.04022107	      0.01000000	      0.11176592	      0.01000000	      0.10997562	      0.01000000	      0.10876150
